Coordinates
version=1
nRows=22
nColumns=33
inDegrees=yes

Units are S.I. units (second, meters, Newtons, ...)
Angles are in degrees.

endheader
time	ground_thorax_rot_x	ground_thorax_rot_y	ground_thorax_rot_z	ground_thorax_tx	ground_thorax_ty	ground_thorax_tz	clav_prot_r	clav_elev_r	scapula_abduction_r	scapula_elevation_r	scapula_upward_rot_r	scapula_winging_r	shoulder_elv_r	plane_of_elev_r	axial_rot_r	elbow_flexion_r	pro_sup_r	wrist_flex_r	wrist_dev_r	clav_prot_l	clav_elev_l	scapula_abduction_l	scapula_elevation_l	scapula_upward_rot_l	scapula_winging_l	shoulder_elv_l	plane_of_elev_l	axial_rot_l	elbow_flexion_l	pro_sup_l	wrist_flex_l	wrist_dev_l	
6.4500	-40.561418	-10.258171	7.669918	-188.432360	831.243365	-9.647792	9.563266	-45.000000	32.282182	-45.000000	-45.000000	1702.255301	-2092.435432	27.881066	91.145430	1452.217549	-330.817304	17.980771	7.701943	15.443805	38.419456	-34.879232	-45.000000	-45.000000	81.706924	-2980.398475	141.195028	156.494303	10.357004	39.339817	8.443270	-22.201608	
6.4600	-40.519860	-10.046994	7.616667	-189.337986	832.179834	-9.804057	9.419535	-45.000000	32.247971	-45.000000	-45.000000	1702.192328	-2092.416705	27.965807	91.019806	1452.256174	-330.825381	17.991420	7.656009	15.402241	38.458682	-34.891153	-45.000000	-45.000000	81.781990	-2980.414489	141.235164	156.100822	10.364124	38.605080	8.495164	-22.170965	
6.4700	-40.496490	-9.880765	7.619553	-190.182547	833.092465	-9.954365	9.223023	-45.000000	32.193614	-45.000000	-45.000000	1702.136225	-2092.400417	28.005111	90.859401	1452.288000	-330.836075	18.021538	7.614137	15.332849	38.567510	-34.934651	-45.000000	-45.000000	81.887750	-2980.437561	141.332434	155.684085	10.395834	37.918196	8.558902	-22.148754	
6.4800	-40.456589	-9.745266	7.622445	-190.891504	833.950114	-10.093708	9.149469	-45.000000	32.178564	-45.000000	-45.000000	1702.077762	-2092.373557	28.060391	90.752780	1452.329256	-330.849498	18.022852	7.566641	15.298643	38.593240	-34.921476	-45.000000	-45.000000	81.958738	-2980.440456	141.391382	155.377824	10.421221	37.354702	8.590337	-22.131546	
6.4900	-40.414155	-9.635977	7.633741	-191.461362	834.752990	-10.220176	9.132471	-45.000000	32.184499	-45.000000	-45.000000	1702.026400	-2092.351931	28.111451	90.670373	1452.371486	-330.864352	18.008605	7.522349	15.281262	38.571877	-34.893661	-45.000000	-45.000000	82.015568	-2980.432597	141.442584	155.123306	10.447994	36.906716	8.586897	-22.111718	
6.5000	-40.369105	-9.551138	7.654667	-191.880304	835.497429	-10.332019	9.153698	-45.000000	32.206468	-45.000000	-45.000000	1701.985145	-2092.329414	28.157033	90.602350	1452.412784	-330.879344	17.991506	7.476314	15.269460	38.555776	-34.853950	-45.000000	-45.000000	82.059521	-2980.404228	141.486118	154.901208	10.489599	36.586814	8.576495	-22.104899	
6.5100	-40.323636	-9.477494	7.677765	-192.157343	836.188778	-10.429514	9.196434	-45.000000	32.240281	-45.000000	-44.999999	1701.955189	-2092.318105	28.195046	90.550000	1452.449527	-330.889199	17.966634	7.439746	15.267940	38.506539	-34.821830	-45.000000	-45.000000	82.092400	-2980.369115	141.522321	154.698591	10.532364	36.378749	8.529256	-22.089546	
6.5200	-40.279101	-9.413076	7.706006	-192.311125	836.835895	-10.514623	9.226204	-45.000000	32.276165	-45.000000	-44.999999	1701.935225	-2092.308137	28.225038	90.492479	1452.480628	-330.890047	17.951994	7.402014	15.257891	38.499262	-34.806611	-45.000000	-45.000000	82.124620	-2980.327918	141.555551	154.486923	10.587798	36.271986	8.487610	-22.083777	
6.5300	-40.232647	-9.358526	7.729052	-192.360737	837.447757	-10.590529	9.258474	-45.000000	32.317708	-45.000000	-44.999998	1701.923954	-2092.295895	28.256919	90.445402	1452.514700	-330.873768	17.935388	7.378048	15.256961	38.449213	-34.808800	-45.000000	-45.000000	82.159627	-2980.300048	141.581994	154.296729	10.643143	36.246005	8.402648	-22.061518	
6.5400	-40.185176	-9.320438	7.758247	-192.324653	838.033159	-10.660879	9.280910	-45.000000	32.359751	-45.000000	-44.999997	1701.915537	-2092.272622	28.286491	90.395680	1452.549879	-330.833696	17.931542	7.350465	15.249750	38.436791	-34.818859	-45.000000	-45.000000	82.199288	-2980.271001	141.603718	154.120313	10.711098	36.298311	8.328168	-22.049407	
6.5500	-40.138242	-9.291697	7.785346	-192.220017	838.601315	-10.729093	9.305860	-45.000000	32.401176	-45.000000	-44.999994	1701.906417	-2092.247007	28.320070	90.347507	1452.586064	-330.761692	17.923384	7.327308	15.249378	38.393869	-34.843103	-45.000000	-45.000000	82.239807	-2980.250789	141.623584	153.974529	10.776179	36.412011	8.223262	-22.026451	
6.5600	-40.092339	-9.271697	7.810796	-192.061564	839.161450	-10.797673	9.324508	-45.000000	32.444547	-45.000000	-44.999989	1701.897892	-2092.214682	28.355897	90.289713	1452.619591	-330.651662	17.925438	7.294925	15.244883	38.394661	-34.869832	-45.000000	-45.000000	82.282224	-2980.221714	141.632904	153.843752	10.846668	36.586428	8.139608	-22.016804	
6.5700	-40.048042	-9.251949	7.821924	-191.861426	839.723191	-10.867929	9.347383	-45.000000	32.486818	-45.000000	-44.999981	1701.887258	-2092.179167	28.406596	90.223298	1452.654853	-330.498499	17.920118	7.259522	15.244978	38.373649	-34.910478	-45.000000	-45.000000	82.324682	-2980.191765	141.642123	153.741128	10.920583	36.808439	8.035129	-22.005253	
6.5800	-40.005489	-9.241255	7.833039	-191.628796	840.296604	-10.940025	9.364751	-45.000000	32.533851	-45.000000	-44.999965	1701.879712	-2092.135514	28.452528	90.146408	1452.689174	-330.296189	17.929061	7.220591	15.243844	38.394891	-34.946610	-45.000000	-45.000000	82.371985	-2980.142391	141.638390	153.656257	11.001351	37.080797	7.954704	-22.008297	
6.5900	-39.964699	-9.216258	7.825343	-191.370154	840.892080	-11.013238	9.390922	-45.000000	32.578136	-45.000000	-44.999937	1701.862147	-2092.095067	28.515818	90.052818	1452.722888	-330.043837	17.922902	7.168819	15.241692	38.396586	-35.003356	-45.000000	-45.000000	82.413668	-2980.087779	141.636351	153.595262	11.082814	37.395056	7.859967	-22.014582	
6.6000	-39.926000	-9.201294	7.823997	-191.089135	841.520739	-11.086398	9.412826	-45.000000	32.628351	-45.000000	-44.999888	1701.849335	-2092.043355	28.566988	89.946535	1452.760446	-329.734257	17.933182	7.124157	15.240396	38.417611	-35.057179	-45.000000	-45.000000	82.464979	-2980.021046	141.619049	153.558039	11.161140	37.754469	7.777689	-22.025790	
6.6100	-39.891930	-9.169848	7.802988	-190.787177	842.194100	-11.158135	9.445037	-45.000000	32.682967	-45.000000	-44.999799	1701.828021	-2091.996412	28.635059	89.816642	1452.803850	-329.368691	17.927653	7.065915	15.236820	38.410180	-35.132825	-45.000000	-45.000000	82.518152	-2979.950670	141.598682	153.547158	11.240270	38.151226	7.676744	-22.037816	
6.6200	-39.861633	-9.157794	7.794312	-190.463642	842.924665	-11.227089	9.471242	-45.000000	32.748400	-45.000000	-44.999641	1701.822187	-2091.928992	28.684484	89.671246	1452.857155	-328.939577	17.951433	7.030081	15.240086	38.420370	-35.191673	-45.000000	-44.999999	82.586866	-2979.864954	141.558543	153.563458	11.319444	38.585359	7.585872	-22.050862	
6.6300	-39.834858	-9.127575	7.765123	-190.116576	843.725238	-11.291807	9.511138	-45.000000	32.828292	-45.000000	-44.999357	1701.800913	-2091.866007	28.758268	89.490214	1452.919332	-328.451033	17.954134	6.964700	15.229845	38.412862	-35.266830	-45.000000	-44.999998	82.651434	-2979.773520	141.518052	153.604963	11.403930	39.047900	7.484213	-22.068906	
6.6400	-39.814800	-9.117456	7.745909	-189.742863	844.609448	-11.350779	9.548574	-45.000000	32.915991	-45.000000	-44.998847	1701.800107	-2091.774855	28.819484	89.287827	1452.996109	-327.891486	17.992659	6.927722	15.226175	38.425091	-35.325035	-45.000000	-44.999997	82.731697	-2979.665929	141.462418	153.674303	11.493134	39.536124	7.393527	-22.088075	
6.6500	-39.804036	-9.092763	7.705293	-189.339079	845.590377	-11.402335	9.596452	-45.000000	33.017620	-45.000000	-44.997935	1701.790594	-2091.681925	28.905979	89.049657	1453.089200	-327.257203	18.013174	6.862665	15.206023	38.418480	-35.404475	-45.000000	-44.999995	82.812091	-2979.554656	141.416559	153.772554	11.592644	40.045660	7.290138	-22.110341	
6.6600	-39.803276	-9.081342	7.664293	-188.901543	846.680645	-11.444830	9.641102	-45.000000	33.127680	-45.000000	-44.996301	1701.794944	-2091.565198	28.991763	88.782269	1453.198576	-326.538430	18.055112	6.809944	15.187539	38.422306	-35.478074	-45.000000	-44.999991	82.904422	-2979.429930	141.368616	153.899008	11.698434	40.574551	7.191413	-22.132606	
